/* XPM */
static char *result[] = {
/* columns rows colors chars-per-pixel */
"64 64 6 1 ",
"  c #252525",
". c #A00000",
"X c red",
"o c #B98F00",
"O c #FFC80D",
"+ c None",
/* pixels */
"++++++++++++++++++++++++++++++++++++++++++++++++++++++++++++++++",
"++++++++++++++++++++++++++++++++++++++++++++++++++++++++++++++++",
"++++++++++++++++++++++++++++++++++++++++++++++++++++++++++++++++",
"++++++++++++++++++++++++++++++++++++++++++++++++++++++++++++++++",
"++++++++++++++++++++++++++++++++++++++++++++++++++++++++++++++++",
"+++++++++++++++++++++++++++++OOooOO+++++++++++++++++++++++++++++",
"+++++++++++++++++++++++++++++OOooOO+++++++++++++++++++++++++++++",
"+++++++++++++++++++++++++++OOoo..ooOO+++++++++++++++++++++++++++",
"+++++++++++++++++++++++++++OOoo..ooOO+++++++++++++++++++++++++++",
"+++++++++++++++++++++++++++OOooXXooOO+++++++++++++++++++++++++++",
"+++++++++++++++++++++++++++OOooXXooOO+++++++++++++++++++++++++++",
"+++++++++++++++++++++++++++++OOooOO+++++++++++++++++++++++++++++",
"+++++++++++++++++++++++++++++OOooOO+++++++++++++++++++++++++++++",
"+++++++++++++++++++++++++++++++oo+++++++++++++++++++++++++++++++",
"+++++++++++++++++++++++++++++++oo+++++++++++++++++++++++++++++++",
"+++++++++++++++++++OOOO++++++ooOOoo++++++OOOO+++++++++++++++++++",
"+++++++++++++++++++OOOO++++++ooOOoo++++++OOOO+++++++++++++++++++",
"+++++++++++++++++OOooooOO++ooOO..OOoo++OOooooOO+++++++++++++++++",
"+++++++++++++++++OOooooOO++ooOO..OOoo++OOooooOO+++++++++++++++++",
"+++++++++++++++++oo..XXooooOO..XX..OOooooXX..oo+++++++++++++++++",
"+++++++++++++++++oo..XXooooOO..XX..OOooooXX..oo+++++++++++++++++",
"+++++++++++++++++OOooooOO++ooOO..OOoo++OOooooOO+++++++++++++++++",
"+++++++++++++++++OOooooOO++ooOO..OOoo++OOooooOO+++++++++++++++++",
"+++++++++++++++++++OOOO++++++ooOOoo++++++OOOO+++++++++++++++++++",
"+++++++++++++++++++OOOO++++++ooOOoo++++++OOOO+++++++++++++++++++",
"+++++++++++++++++++++++++++++++oo+++++++++++++++++++++++++++++++",
"+++++++++++++++++++++++++++++++oo+++++++++++++++++++++++++++++++",
"+++++++++++++++++++++++++++++++oo+++++++++++++++++++++++++++++++",
"+++++++++++++++++++++++++++++++oo+++++++++++++++++++++++++++++++",
"+++++++++++++++++++++++++++++++oo+++++++++++++++++++++++++++++++",
"+++++++++++++++++++++++++++++++oo+++++++++++++++++++++++++++++++",
"+++++++++++++++++++++++++++++++oo+++++++++++++++++++++++++++++++",
"+++++++++++++++++++++++++++++++oo+++++++++++++++++++++++++++++++",
"+++++++++++++++++++++++++++++OOooOO+++++++++++++++++++++++++++++",
"+++++++++++++++++++++++++++++OOooOO+++++++++++++++++++++++++++++",
"+++++++++++++++++++++++++++OOooXXooOO+++++++++++++++++++++++++++",
"+++++++++++++++++++++++++++OOooXXooOO+++++++++++++++++++++++++++",
"+++++++++++++++++++++++++++OOoo..ooOO+++++++++++++++++++++++++++",
"+++++++++++++++++++++++++++OOoo..ooOO+++++++++++++++++++++++++++",
"+++++++++++++++++++++++++++++OOooOO+++++++++++++++++++++++++++++",
"+++++++++++++++++++++++++++++OOooOO+++++++++++++++++++++++++++++",
"++++++++++++++++++++++++++++++++++++++++++++++++++++++++++++++++",
"++++++++++++++++++++++++++++++++++++++++++++++++++++++++++++++++",
"++++++++++++++++++++++++++++++++++++++++++++++++++++++++++++++++",
"++++++++++++++++++++++++++++++++++++++++++++++++++++++++++++++++",
"++++++++++++++++++++++++++++++++++++++++++++++++++++++++++++++++",
"++++++++++++++++++++++++++++        ++++++++++++++++++++++++++++",
"+++++++++++++++++++++++++              +++++++++++++++++++++++++",
"++++++++++++++++++++++++                ++++++++++++++++++++++++",
"+++++++++++++++++++++++                  +++++++++++++++++++++++",
"+++++++++++++++++++++++                  +++++++++++++++++++++++",
"++++++++++++++++++++++++                ++++++++++++++++++++++++",
"+++++++++++++++++++++++++              +++++++++++++++++++++++++",
"++++++++++++++++++++++++++++        ++++++++++++++++++++++++++++",
"++++++++++++++++++++++++++++++++++++++++++++++++++++++++++++++++",
"++++++++++++++++++++++++++++++++++++++++++++++++++++++++++++++++",
"++++++++++++++++++++++++++++++++++++++++++++++++++++++++++++++++",
"++++++++++++++++++++++++++++++++++++++++++++++++++++++++++++++++",
"++++++++++++++++++++++++++++++++++++++++++++++++++++++++++++++++",
"++++++++++++++++++++++++++++++++++++++++++++++++++++++++++++++++",
"++++++++++++++++++++++++++++++++++++++++++++++++++++++++++++++++",
"++++++++++++++++++++++++++++++++++++++++++++++++++++++++++++++++",
"++++++++++++++++++++++++++++++++++++++++++++++++++++++++++++++++",
"++++++++++++++++++++++++++++++++++++++++++++++++++++++++++++++++"
};
