/* XPM */
static char *result[] = {
/* columns rows colors chars-per-pixel */
"64 64 6 1 ",
"  c black",
". c #933100",
"X c #A64717",
"o c #9B9998",
"O c #DEDAD8",
"+ c None",
/* pixels */
"++++++++++++++++++++++++++++++++++++++++++++++++++++++++++++++++",
"++++++++++++++++++++++++++++++++++++++++++++++++++++++++++++++++",
"++++++++++++++++++++++++++++++++++++++++++++++++++++++++++++++++",
"++++++++++++++++++++++++++++++++++++++++++++++++++++++++++++++++",
"++++++++++++++++++++++++++++++++++++++++++++++++++++++++++++++++",
"++++++++++++++++++++++++++++++++++++++++++++++++++++++++++++++++",
"++++++++++  ++++++++++++++++++++++++++++++++++++++++++++++++++++",
"++++++++++  ++++++++++++++++++++++++++++++++++++++++++++++++++++",
"++++++++  OO  ++++++++++++++++++++++++++++++++++++++++++++++++++",
"++++++++  OO  ++++++++++++++++++++++++++++++++++++++++++++++++++",
"++++++++  OOoo  ++++++++++++++++++++++++++++++++++++++++++++++++",
"++++++++  OOoo  ++++++++++++++++++++++++++++++++++++++++++++++++",
"++++++++  OOoo  ++++++++++++++++++++++++++++++++++++++++++++++++",
"++++++++  OOoo  ++++++++++++++++++++++++++++++++++++++++++++++++",
"++++++++  OOoooo  ++++++++++++++          ++++++++++++++++++++++",
"++++++++  OOoooo  ++++++++++++++          ++++++++++++++++++++++",
"++++++++++  OOoo  ++++++++++++  oooooooooo  ++++++++++++++++++++",
"++++++++++  OOoo  ++++++++++++  oooooooooo  ++++++++++++++++++++",
"++++++++++  OOoooo  ++++++++  OOOOOOOOoooooo  ++++++++++++++++++",
"++++++++++  OOoooo  ++++++++  OOOOOOOOoooooo  ++++++++++++++++++",
"++++++++++++  OOoo  ++++++  OOOOOOOOOOOOoooooo  ++++++++++++++++",
"++++++++++++  OOoo  ++++++  OOOOOOOOOOOOoooooo  ++++++++++++++++",
"++++++++++++  OOoooo  ++++  OO  OOOOOO    oooo  ++++++++++++++++",
"++++++++++++  OOoooo  ++++  OO  OOOOOO    oooo  ++++++++++++++++",
"++++++++++++++  OOoo  ++++  OO    OO      oooo  ++++++++++++++++",
"++++++++++++++  OOoo  ++++  OO    OO      oooo  ++++++++++++++++",
"++++++++++++++  OOoooo  ++  OO    oo      oooo  ++++++++++++++++",
"++++++++++++++  OOoooo  ++  OO    oo      oooo  ++++++++++++++++",
"++++++++++++++++  OOoo  ++++  OOOO  oooooooooo  ++++++++++++++++",
"++++++++++++++++  OOoo  ++++  OOOO  oooooooooo  ++++++++++++++++",
"++++++++++++++++  OOoooo  ++  OOOOOOOOoooooo  ++++++++++++++++++",
"++++++++++++++++  OOoooo  ++  OOOOOOOOoooooo  ++++++++++++++++++",
"++++++++++++++++++  OOoooo    OO  OO  oo    ++++++++++++++++++++",
"++++++++++++++++++  OOoooo    OO  OO  oo    ++++++++++++++++++++",
"++++++++++++++++++  OOoooo  ..                ++++++++++++++++++",
"++++++++++++++++++  OOoooo  ..                ++++++++++++++++++",
"++++++++++++++++++++  oo    ..  OO  OOOOooOO        ++++++++++++",
"++++++++++++++++++++  oo    ..  OO  OOOOooOO        ++++++++++++",
"++++++++++++++++++++    XX....    OO        OOoooooo  ++++++++++",
"++++++++++++++++++++    XX....    OO        OOoooooo  ++++++++++",
"++++++++++++++++++  XX..XX..  ooOO  OOOO  OOXXXX....oo  ++++++++",
"++++++++++++++++++  XX..XX..  ooOO  OOOO  OOXXXX....oo  ++++++++",
"++++++++++++++++++  XX..      oo  OO      OOXXOOoo..oo  ++++++++",
"++++++++++++++++++  XX..      oo  OO      OOXXOOoo..oo  ++++++++",
"++++++++++++++++++++      oooooo          OOXXOOoo..oo  ++++++++",
"++++++++++++++++++++      oooooo          OOXXOOoo..oo  ++++++++",
"++++++++++++++++++++++++++                OOXXXX....oo  ++++++++",
"++++++++++++++++++++++++++                OOXXXX....oo  ++++++++",
"++++++++++++++++++++++++++++++  oo          OOoooooo  ++++++++++",
"++++++++++++++++++++++++++++++  oo          OOoooooo  ++++++++++",
"++++++++++++++++++++++++++++  oooooo  oooooo        ++++++++++++",
"++++++++++++++++++++++++++++  oooooo  oooooo        ++++++++++++",
"++++++++++++++++++++++++++  oooooo  ++  oooooooo  ++++++++++++++",
"++++++++++++++++++++++++++  oooooo  ++  oooooooo  ++++++++++++++",
"++++++++++++++++++++++++  oooooooo  ++  oooooooooo  ++++++++++++",
"++++++++++++++++++++++++  oooooooo  ++  oooooooooo  ++++++++++++",
"++++++++++++++++++++++++            ++              ++++++++++++",
"++++++++++++++++++++++++            ++              ++++++++++++",
"++++++++++++++++++++++++++++++++++++++++++++++++++++++++++++++++",
"++++++++++++++++++++++++++++++++++++++++++++++++++++++++++++++++",
"++++++++++++++++++++++++++++++++++++++++++++++++++++++++++++++++",
"++++++++++++++++++++++++++++++++++++++++++++++++++++++++++++++++",
"++++++++++++++++++++++++++++++++++++++++++++++++++++++++++++++++",
"++++++++++++++++++++++++++++++++++++++++++++++++++++++++++++++++"
};
