/* XPM */
static char *result[] = {
/* columns rows colors chars-per-pixel */
"64 64 6 1 ",
"  c black",
". c #933100",
"X c #A64717",
"o c #9B9998",
"O c #DEDAD8",
"+ c None",
/* pixels */
"++++++++++++++++++++++++++++++++++++++++++++++++++++++++++++++++",
"++++++++++++++++++++++++++++++++++++++++++++++++++++++++++++++++",
"++++++++++++++++++++++++++++++++++++++++++++++++++++++++++++++++",
"++++++++++++++++++++++++++++++++++++++++++++++++++++++++++++++++",
"++++++++++++++++++++++++++++++++++++++++++++++++++++++++++++++++",
"++++++++++++++++++++++++++++++++++++++++++++++++++++++++++++++++",
"++++++++++++++++++++++++++++++++++++++++++++++++++++  ++++++++++",
"++++++++++++++++++++++++++++++++++++++++++++++++++++  ++++++++++",
"++++++++++++++++++++++++++++++++++++++++++++++++++  OO  ++++++++",
"++++++++++++++++++++++++++++++++++++++++++++++++++  OO  ++++++++",
"++++++++++++++++++++++++++++++++++++++++++++++++  ooOO  ++++++++",
"++++++++++++++++++++++++++++++++++++++++++++++++  ooOO  ++++++++",
"++++++++++++++++++++++++++++++++++++++++++++++++  ooOO  ++++++++",
"++++++++++++++++++++++++++++++++++++++++++++++++  ooOO  ++++++++",
"++++++++++++++++++++++          ++++++++++++++  ooooOO  ++++++++",
"++++++++++++++++++++++          ++++++++++++++  ooooOO  ++++++++",
"++++++++++++++++++++  oooooooooo  ++++++++++++  ooOO  ++++++++++",
"++++++++++++++++++++  oooooooooo  ++++++++++++  ooOO  ++++++++++",
"++++++++++++++++++  ooooooOOOOOOOO  ++++++++  ooooOO  ++++++++++",
"++++++++++++++++++  ooooooOOOOOOOO  ++++++++  ooooOO  ++++++++++",
"++++++++++++++++  ooooooOOOOOOOOOOOO  ++++++  ooOO  ++++++++++++",
"++++++++++++++++  ooooooOOOOOOOOOOOO  ++++++  ooOO  ++++++++++++",
"++++++++++++++++  oooo    OOOOOO  OO  ++++  ooooOO  ++++++++++++",
"++++++++++++++++  oooo    OOOOOO  OO  ++++  ooooOO  ++++++++++++",
"++++++++++++++++  oooo      OO    OO  ++++  ooOO  ++++++++++++++",
"++++++++++++++++  oooo      OO    OO  ++++  ooOO  ++++++++++++++",
"++++++++++++++++  oooo      oo    OO  ++  ooooOO  ++++++++++++++",
"++++++++++++++++  oooo      oo    OO  ++  ooooOO  ++++++++++++++",
"++++++++++++++++  oooooooooo  OOOO  ++++  ooOO  ++++++++++++++++",
"++++++++++++++++  oooooooooo  OOOO  ++++  ooOO  ++++++++++++++++",
"++++++++++++++++++  ooooooOOOOOOOO  ++  ooooOO  ++++++++++++++++",
"++++++++++++++++++  ooooooOOOOOOOO  ++  ooooOO  ++++++++++++++++",
"++++++++++++++++++++    oo  OO  OO    ooooOO  ++++++++++++++++++",
"++++++++++++++++++++    oo  OO  OO    ooooOO  ++++++++++++++++++",
"++++++++++++++++++                ..  ooooOO  ++++++++++++++++++",
"++++++++++++++++++                ..  ooooOO  ++++++++++++++++++",
"++++++++++++        OOooOOOO  OO  ..    oo  ++++++++++++++++++++",
"++++++++++++        OOooOOOO  OO  ..    oo  ++++++++++++++++++++",
"++++++++++  ooooooOO        OO    ....XX    ++++++++++++++++++++",
"++++++++++  ooooooOO        OO    ....XX    ++++++++++++++++++++",
"++++++++  oo....XXXXOO  OOOO  OOoo  ..XX..XX  ++++++++++++++++++",
"++++++++  oo....XXXXOO  OOOO  OOoo  ..XX..XX  ++++++++++++++++++",
"++++++++  oo..ooOOXXOO      OO  oo      ..XX  ++++++++++++++++++",
"++++++++  oo..ooOOXXOO      OO  oo      ..XX  ++++++++++++++++++",
"++++++++  oo..ooOOXXOO          oooooo      ++++++++++++++++++++",
"++++++++  oo..ooOOXXOO          oooooo      ++++++++++++++++++++",
"++++++++  oo....XXXXOO                ++++++++++++++++++++++++++",
"++++++++  oo....XXXXOO                ++++++++++++++++++++++++++",
"++++++++++  ooooooOO          oo  ++++++++++++++++++++++++++++++",
"++++++++++  ooooooOO          oo  ++++++++++++++++++++++++++++++",
"++++++++++++        oooooo  oooooo  ++++++++++++++++++++++++++++",
"++++++++++++        oooooo  oooooo  ++++++++++++++++++++++++++++",
"++++++++++++++  oooooooo  ++  oooooo  ++++++++++++++++++++++++++",
"++++++++++++++  oooooooo  ++  oooooo  ++++++++++++++++++++++++++",
"++++++++++++  oooooooooo  ++  oooooooo  ++++++++++++++++++++++++",
"++++++++++++  oooooooooo  ++  oooooooo  ++++++++++++++++++++++++",
"++++++++++++              ++            ++++++++++++++++++++++++",
"++++++++++++              ++            ++++++++++++++++++++++++",
"++++++++++++++++++++++++++++++++++++++++++++++++++++++++++++++++",
"++++++++++++++++++++++++++++++++++++++++++++++++++++++++++++++++",
"++++++++++++++++++++++++++++++++++++++++++++++++++++++++++++++++",
"++++++++++++++++++++++++++++++++++++++++++++++++++++++++++++++++",
"++++++++++++++++++++++++++++++++++++++++++++++++++++++++++++++++",
"++++++++++++++++++++++++++++++++++++++++++++++++++++++++++++++++"
};
