/* XPM */
static char *result[] = {
/* columns rows colors chars-per-pixel */
"64 64 6 1 ",
"  c black",
". c #933100",
"X c #A64717",
"o c #9B9998",
"O c #DEDAD8",
"+ c None",
/* pixels */
"++++++++++++++++++++++++++++++++++++++++++++++++++++++++++++++++",
"++++++++++++++++++++++++++++++++++++++++++++++++++++++++++++++++",
"++++++++++++++++++++++++++++++++++++++++++++++++++++++++++++++++",
"++++++++++++++++++++++++++++++++++++++++++++++++++++++++++++++++",
"++++++++++++++++++++++++++++++++++++++++++++++++++++++++++++++++",
"++++++++++++++++++++++++++++++++++++++++++++++++++++++++++++++++",
"+++++++++++++++++++++++++++++++++++++++++++++  +++++++++++++++++",
"+++++++++++++++++++++++++++++++++++++++++++++  +++++++++++++++++",
"+++++++++++++++++++++++++++++++++++++++++++++    +++++++++++++++",
"+++++++++++++++++++++++++++++++++++++++++++++    +++++++++++++++",
"+++++++++++++++++++++++++++++++++++++++++++++  OO  +++++++++++++",
"+++++++++++++++++++++++++++++++++++++++++++++  OO  +++++++++++++",
"+++++++++++++++++++++++++++++++++++++++++++++  OO  +++++++++++++",
"+++++++++++++++++++++++++++++++++++++++++++++  OO  +++++++++++++",
"+++++++++++++++++++++++++++          ++++++++  OO  +++++++++++++",
"+++++++++++++++++++++++++++          ++++++++  OO  +++++++++++++",
"+++++++++++++++++++++++++  ooOOOOOOOO  ++++++  OO  +++++++++++++",
"+++++++++++++++++++++++++  ooOOOOOOOO  ++++++  OO  +++++++++++++",
"+++++++++++++++++++++++  ooooooooOOOOOO  ++++  OO  +++++++++++++",
"+++++++++++++++++++++++  ooooooooOOOOOO  ++++  OO  +++++++++++++",
"+++++++++++++++++++++  ooooooooooooooOOOO  ++  OO  +++++++++++++",
"+++++++++++++++++++++  ooooooooooooooOOOO  ++  OO  +++++++++++++",
"+++++++++++++++++++++  ooooooooooooooooOO  ++  OO  +++++++++++++",
"+++++++++++++++++++++  ooooooooooooooooOO  ++  OO  +++++++++++++",
"+++++++++++++++++++++  ooooooooooooooooOO  ++  OO  +++++++++++++",
"+++++++++++++++++++++  ooooooooooooooooOO  ++  OO  +++++++++++++",
"+++++++++++++++++++++  ooooooooooooooooOO  ++  OO  +++++++++++++",
"+++++++++++++++++++++  ooooooooooooooooOO  ++  OO  +++++++++++++",
"+++++++++++++++++++++  oooooooooooooooooo    ooOO  +++++++++++++",
"+++++++++++++++++++++  oooooooooooooooooo    ooOO  +++++++++++++",
"+++++++++++++++++++++++  oooo  oo  oooo  ++  ooOO  +++++++++++++",
"+++++++++++++++++++++++  oooo  oo  oooo  ++  ooOO  +++++++++++++",
"+++++++++++++++++++++++                  ++  ooOO  +++++++++++++",
"+++++++++++++++++++++++                  ++  ooOO  +++++++++++++",
"+++++++++++++++++++++++++      OO      ++++  ooOO  +++++++++++++",
"+++++++++++++++++++++++++      OO      ++++  ooOO  +++++++++++++",
"+++++++++++++++++          OO  OO  OO      ooOO  +++++++++++++++",
"+++++++++++++++++          OO  OO  OO      ooOO  +++++++++++++++",
"+++++++++++++++  oooo  OO    OO  OO    ..    OO  +++++++++++++++",
"+++++++++++++++  oooo  OO    OO  OO    ..    OO  +++++++++++++++",
"+++++++++++++  oo..  oo  OOOO  OO  OO  ....      +++++++++++++++",
"+++++++++++++  oo..  oo  OOOO  OO  OO  ....      +++++++++++++++",
"+++++++++++++  oo..  oooo    OO  OO      ..XX    +++++++++++++++",
"+++++++++++++  oo..  oooo    OO  OO      ..XX    +++++++++++++++",
"+++++++++++++  oo..oo    OO    OO    OO    XX..    +++++++++++++",
"+++++++++++++  oo..oo    OO    OO    OO    XX..    +++++++++++++",
"+++++++++++++  oo....XX  OO  OO  OO  OO      ..XX  +++++++++++++",
"+++++++++++++  oo....XX  OO  OO  OO  OO      ..XX  +++++++++++++",
"+++++++++++++++  oooooo    oo  OO  oo    ++++    +++++++++++++++",
"+++++++++++++++  oooooo    oo  OO  oo    ++++    +++++++++++++++",
"+++++++++++++++++        oooooo  oooooo  +++++++++++++++++++++++",
"+++++++++++++++++        oooooo  oooooo  +++++++++++++++++++++++",
"+++++++++++++++++++++  oooooo  ++  oooooo  +++++++++++++++++++++",
"+++++++++++++++++++++  oooooo  ++  oooooo  +++++++++++++++++++++",
"+++++++++++++++++++  oooooooo  ++  oooooooo  +++++++++++++++++++",
"+++++++++++++++++++  oooooooo  ++  oooooooo  +++++++++++++++++++",
"+++++++++++++++++++            ++            +++++++++++++++++++",
"+++++++++++++++++++            ++            +++++++++++++++++++",
"++++++++++++++++++++++++++++++++++++++++++++++++++++++++++++++++",
"++++++++++++++++++++++++++++++++++++++++++++++++++++++++++++++++",
"++++++++++++++++++++++++++++++++++++++++++++++++++++++++++++++++",
"++++++++++++++++++++++++++++++++++++++++++++++++++++++++++++++++",
"++++++++++++++++++++++++++++++++++++++++++++++++++++++++++++++++",
"++++++++++++++++++++++++++++++++++++++++++++++++++++++++++++++++"
};
