/* XPM */
static char *result[] = {
/* columns rows colors chars-per-pixel */
"64 64 9 1 ",
"  c black",
". c #484343",
"X c #A00000",
"o c red",
"O c #B98F00",
"+ c #FFC80D",
"@ c #9B9998",
"# c #DEDAD8",
"$ c None",
/* pixels */
"$$$$$$$$$$$$$$$$$$$$$$$$$$$$$$$$$$$$$$$$$$$$$$$$$$$$$$$$$$$$$$$$",
"$$$$$$$$$$$$$$$$$$$$$$$$$$$$$$$$$$$$$$$$$$$$$$$$$$$$$$$$$$$$$$$$",
"$$$$$$$$$$$$$$$$$$$$$$$$$$$$$$$$$$$$$$$$$$$$$$$$$$$$$$$$$$$$$$$$",
"$$$$$$$$$$$$$$$$$$$$$$$$$$$$$$$$$$$$$$$$$$$$$$$$$$$$$$$$$$$$$$$$",
"$$$$$$$$$$$$$$$$$$$$$$$$$$$$$$$$$$$$$$$$$$$$$$$$$$$$$$$$$$$$$$$$",
"$$$$$$$$$$$$$$$$$$$$$$$$$$$$$$$$$$$$$$$$$$$$$$$$$$$$$$$$$$$$$$$$",
"$$$$$$$$$$$$$$$$$$$$$$$$$$$$$$$  $$$$$$$$$$$$$$$$$$$$$$$$$$$$$$$",
"$$$$$$$$$$$$$$$$$$$$$$$$$$$$$$$  $$$$$$$$$$$$$$$$$$$$$$$$$$$$$$$",
"$$$$$$$$$$$$$$$$$$$$$$$$$$$$$  oo  $$$$$$$$$$$$$$$$$$$$$$$$$$$$$",
"$$$$$$$$$$$$$$$$$$$$$$$$$$$$$  oo  $$$$$$$$$$$$$$$$$$$$$$$$$$$$$",
"$$$$$$$$$$$$$$$$$$$$$$$$$$$  XXooXX  $$$$$$$$$$$$$$$$$$$$$$$$$$$",
"$$$$$$$$$$$$$$$$$$$$$$$$$$$  XXooXX  $$$$$$$$$$$$$$$$$$$$$$$$$$$",
"$$$$$$$$$$$$$$$$$$$$$$$$$$$          $$$$$$$$$$$$$$$$$$$$$$$$$$$",
"$$$$$$$$$$$$$$$$$$$$$$$$$$$          $$$$$$$$$$$$$$$$$$$$$$$$$$$",
"$$$$$$$$$$$$$$$$$$$$$$$$$  ##@@..@@##  $$$$$$$$$$$$$$$$$$$$$$$$$",
"$$$$$$$$$$$$$$$$$$$$$$$$$  ##@@..@@##  $$$$$$$$$$$$$$$$$$$$$$$$$",
"$$$$$$$$$$$$$$$$$$$$$$$  @@@@......@@@@  $$$$$$$$$$$$$$$$$$$$$$$",
"$$$$$$$$$$$$$$$$$$$$$$$  @@@@......@@@@  $$$$$$$$$$$$$$$$$$$$$$$",
"$$$$$$$$$$$$$$$$$$$$$  @@..............@@  $$$$$$$$$$$$$$$$$$$$$",
"$$$$$$$$$$$$$$$$$$$$$  @@..............@@  $$$$$$$$$$$$$$$$$$$$$",
"$$$$$$$$$$$$$$$$$$$$$  @@..............@@  $$$$$$$$$$$$$$$$$$$$$",
"$$$$$$$$$$$$$$$$$$$$$  @@..............@@  $$$$$$$$$$$$$$$$$$$$$",
"$$$$$$$$$$$$$$$$$$$$$  @@              @@  $$$$$$$$$$$$$$$$$$$$$",
"$$$$$$$$$$$$$$$$$$$$$  @@              @@  $$$$$$$$$$$$$$$$$$$$$",
"$$$$$$$$$$$$$$$$$$$$$  @@......  ......@@  $$$$$$$$$$$$$$$$$$$$$",
"$$$$$$$$$$$$$$$$$$$$$  @@......  ......@@  $$$$$$$$$$$$$$$$$$$$$",
"$$$$$$$$$$$$$$$$$$$$$  @@......  ......@@  $$$$$$$$$$$$$$$$$$$$$",
"$$$$$$$$$$$$$$$$$$$$$  @@......  ......@@  $$$$$$$$$$$$$$$$$$$$$",
"$$$$$$$$$$$$$$$$$$$      ......  ......      $$$$$$$$$$$$$$$$$$$",
"$$$$$$$$$$$$$$$$$$$      ......  ......      $$$$$$$$$$$$$$$$$$$",
"$$$$$$$$$$$$$$$$$  ####@@  ....  ....  @@####  $$$$$$$$$$$$$$$$$",
"$$$$$$$$$$$$$$$$$  ####@@  ....  ....  @@####  $$$$$$$$$$$$$$$$$",
"$$$$$$$$$$$$$$$$$  ##@@..    ..  ..    ..@@##  $$$$$$$$$$$$$$$$$",
"$$$$$$$$$$$$$$$$$  ##@@..    ..  ..    ..@@##  $$$$$$$$$$$$$$$$$",
"$$$$$$$$$$$$$$$$$$$      ..          ..      $$$$$$$$$$$$$$$$$$$",
"$$$$$$$$$$$$$$$$$$$      ..          ..      $$$$$$$$$$$$$$$$$$$",
"$$$$$$$$$$$$$$$$$  @@..    ....++....    ..@@  $$$$$$$$$$$$$$$$$",
"$$$$$$$$$$$$$$$$$  @@..    ....++....    ..@@  $$$$$$$$$$$$$$$$$",
"$$$$$$$$$$$$$$$  @@@@....  OO++++++OO  ....@@@@  $$$$$$$$$$$$$$$",
"$$$$$$$$$$$$$$$  @@@@....  OO++++++OO  ....@@@@  $$$$$$$$$$$$$$$",
"$$$$$$$$$$$$$$$  @@....    ....++....    ....@@  $$$$$$$$$$$$$$$",
"$$$$$$$$$$$$$$$  @@....    ....++....    ....@@  $$$$$$$$$$$$$$$",
"$$$$$$$$$$$$$$$  @@....    ....++....    ....@@  $$$$$$$$$$$$$$$",
"$$$$$$$$$$$$$$$  @@....    ....++....    ....@@  $$$$$$$$$$$$$$$",
"$$$$$$$$$$$$$$$            ....++....            $$$$$$$$$$$$$$$",
"$$$$$$$$$$$$$$$            ....++....            $$$$$$$$$$$$$$$",
"$$$$$$$$$$$$$    ooXX  ..      OO      ..  XXoo    $$$$$$$$$$$$$",
"$$$$$$$$$$$$$    ooXX  ..      OO      ..  XXoo    $$$$$$$$$$$$$",
"$$$$$$$$$$$$$  ooXXXX    ....      ....    XXXXoo  $$$$$$$$$$$$$",
"$$$$$$$$$$$$$  ooXXXX    ....      ....    XXXXoo  $$$$$$$$$$$$$",
"$$$$$$$$$$$  ooXX    @@@@      ..      @@@@    XXoo  $$$$$$$$$$$",
"$$$$$$$$$$$  ooXX    @@@@      ..      @@@@    XXoo  $$$$$$$$$$$",
"$$$$$$$$$$$$$      @@@@......      ......@@@@      $$$$$$$$$$$$$",
"$$$$$$$$$$$$$      @@@@......      ......@@@@      $$$$$$$$$$$$$",
"$$$$$$$$$$$$$$$$$  @@........  $$  ........@@  $$$$$$$$$$$$$$$$$",
"$$$$$$$$$$$$$$$$$  @@........  $$  ........@@  $$$$$$$$$$$$$$$$$",
"$$$$$$$$$$$$$$$$$              $$              $$$$$$$$$$$$$$$$$",
"$$$$$$$$$$$$$$$$$              $$              $$$$$$$$$$$$$$$$$",
"$$$$$$$$$$$$$$$$$$$$$$$$$$$$$$$$$$$$$$$$$$$$$$$$$$$$$$$$$$$$$$$$",
"$$$$$$$$$$$$$$$$$$$$$$$$$$$$$$$$$$$$$$$$$$$$$$$$$$$$$$$$$$$$$$$$",
"$$$$$$$$$$$$$$$$$$$$$$$$$$$$$$$$$$$$$$$$$$$$$$$$$$$$$$$$$$$$$$$$",
"$$$$$$$$$$$$$$$$$$$$$$$$$$$$$$$$$$$$$$$$$$$$$$$$$$$$$$$$$$$$$$$$",
"$$$$$$$$$$$$$$$$$$$$$$$$$$$$$$$$$$$$$$$$$$$$$$$$$$$$$$$$$$$$$$$$",
"$$$$$$$$$$$$$$$$$$$$$$$$$$$$$$$$$$$$$$$$$$$$$$$$$$$$$$$$$$$$$$$$"
};
