/* XPM */
static char *result[] = {
/* columns rows colors chars-per-pixel */
"64 64 9 1 ",
"  c black",
". c #484343",
"X c #A00000",
"o c red",
"O c #B98F00",
"+ c #FFC80D",
"@ c #9B9998",
"# c #DEDAD8",
"$ c None",
/* pixels */
"$$$$$$$$$$$$$$$$$$$$$$$$$$$$$$$$$$$$$$$$$$$$$$$$$$$$$$$$$$$$$$$$",
"$$$$$$$$$$$$$$$$$$$$$$$$$$$$$$$$$$$$$$$$$$$$$$$$$$$$$$$$$$$$$$$$",
"$$$$$$$$$$$$$$$$$$$$$$$$$$$$$$$$$$$$$$$$$$$$$$$$$$$$$$$$$$$$$$$$",
"$$$$$$$$$$$$$$$$$$$$$$$$$$$$$$$$$$$$$$$$$$$$$$$$$$$$$$$$$$$$$$$$",
"$$$$$$$$$$$$$$$$$$$$$$$$$$$$$$$$$$$$$$$$$$$$$$$$$$$$$$$$$$$$$$$$",
"$$$$$$$$$$$$$$$$$$$$$$$$$$$$$$$$$$$$$$$$$$$$$$$$$$$$$$$$$$$$$$$$",
"$$$$$$$$$$$$$$$$$$$$$$$$$$$$$$$$$$$$$$$$$$$$$$$$$$$$$$$$$$$$$$$$",
"$$$$$$$$$$$$$$$$$$$$$$$$$$$$$$$$$$$$$$$$$$$$$$$$$$$$$$$$$$$$$$$$",
"$$$$$$$$$$$$$$$$$$$$$$$$$$$$$$$$$$$$$$      $$$$$$$$$$$$$$$$$$$$",
"$$$$$$$$$$$$$$$$$$$$$$$$$$$$$$$$$$$$$$      $$$$$$$$$$$$$$$$$$$$",
"$$$$$$$$$$$$$$$$$$$$$$$$$$$$$$$$$$$$  oooo    $$$$$$$$$$$$$$$$$$",
"$$$$$$$$$$$$$$$$$$$$$$$$$$$$$$$$$$$$  oooo    $$$$$$$$$$$$$$$$$$",
"$$$$$$$$$$$$$$$$$$$$$$                  XXoo  $$$$$$$$$$$$$$$$$$",
"$$$$$$$$$$$$$$$$$$$$$$                  XXoo  $$$$$$$$$$$$$$$$$$",
"$$$$$$$$$$$$$$$$$$$$  ....@@@@####  ##    XXoo  $$$$$$$$$$$$$$$$",
"$$$$$$$$$$$$$$$$$$$$  ....@@@@####  ##    XXoo  $$$$$$$$$$$$$$$$",
"$$$$$$$$$$$$$$$$$$  ..........@@@@##    $$  XX  $$$$$$$$$$$$$$$$",
"$$$$$$$$$$$$$$$$$$  ..........@@@@##    $$  XX  $$$$$$$$$$$$$$$$",
"$$$$$$$$$$$$$$$$$$  ............@@@@  $$$$$$    $$$$$$$$$$$$$$$$",
"$$$$$$$$$$$$$$$$$$  ............@@@@  $$$$$$    $$$$$$$$$$$$$$$$",
"$$$$$$$$$$$$$$$$$$            ..@@@@  $$$$$$$$$$$$$$$$$$$$$$$$$$",
"$$$$$$$$$$$$$$$$$$            ..@@@@  $$$$$$$$$$$$$$$$$$$$$$$$$$",
"$$$$$$$$$$$$$$$$$$  ..  ........@@@@  $$$$$$$$$$$$$$$$$$$$$$$$$$",
"$$$$$$$$$$$$$$$$$$  ..  ........@@@@  $$$$$$$$$$$$$$$$$$$$$$$$$$",
"$$$$$$$$$$$$$$$$$$  ..  ........@@@@  $$$$$$$$$$$$$$$$$$$$$$$$$$",
"$$$$$$$$$$$$$$$$$$  ..  ........@@@@  $$$$$$$$$$$$$$$$$$$$$$$$$$",
"$$$$$$$$$$$$$$$$$$  ..  ........@@      $$$$$$$$$$$$$$$$$$$$$$$$",
"$$$$$$$$$$$$$$$$$$  ..  ........@@      $$$$$$$$$$$$$$$$$$$$$$$$",
"$$$$$$$$$$$$$$$$    ..  ......    @@####  $$$$$$$$$$$$$$$$$$$$$$",
"$$$$$$$$$$$$$$$$    ..  ......    @@####  $$$$$$$$$$$$$$$$$$$$$$",
"$$$$$$$$$$$$$$$$  ##            ....@@##    $$$$$$$$$$$$$$$$$$$$",
"$$$$$$$$$$$$$$$$  ##            ....@@##    $$$$$$$$$$$$$$$$$$$$",
"$$$$$$$$$$$$$$$$      ..++....  ....    oooo  $$$$$$$$$$$$$$$$$$",
"$$$$$$$$$$$$$$$$      ..++....  ....    oooo  $$$$$$$$$$$$$$$$$$",
"$$$$$$$$$$$$$$  @@@@  ++++++OO      ..@@  oo  $$$$$$$$$$$$$$$$$$",
"$$$$$$$$$$$$$$  @@@@  ++++++OO      ..@@  oo  $$$$$$$$$$$$$$$$$$",
"$$$$$$$$$$$$$$  @@..  ..++....    ....@@@@  oo  $$$$$$$$$$$$$$$$",
"$$$$$$$$$$$$$$  @@..  ..++....    ....@@@@  oo  $$$$$$$$$$$$$$$$",
"$$$$$$$$$$$$$$  @@..  ..++....  ..  ....@@  oo  $$$$$$$$$$$$$$$$",
"$$$$$$$$$$$$$$  @@..  ..++....  ..  ....@@  oo  $$$$$$$$$$$$$$$$",
"$$$$$$$$$$$$$$  @@    ..++..        ....@@  oo  $$$$$$$$$$$$$$$$",
"$$$$$$$$$$$$$$  @@    ..++..        ....@@  oo  $$$$$$$$$$$$$$$$",
"$$$$$$$$$$$$$$$$    ..  OO    ..          XXoo    $$$$$$$$$$$$$$",
"$$$$$$$$$$$$$$$$    ..  OO    ..          XXoo    $$$$$$$$$$$$$$",
"$$$$$$$$$$$$$$$$  ....        ....    XXXXXXXXoo  $$$$$$$$$$$$$$",
"$$$$$$$$$$$$$$$$  ....        ....    XXXXXXXXoo  $$$$$$$$$$$$$$",
"$$$$$$$$$$$$$$$$          ..          XXXXXXXXoooo  $$$$$$$$$$$$",
"$$$$$$$$$$$$$$$$          ..          XXXXXXXXoooo  $$$$$$$$$$$$",
"$$$$$$$$$$$$$$  @@@@....  ..  ....@@@@    XXXXXXoo  $$$$$$$$$$$$",
"$$$$$$$$$$$$$$  @@@@....  ..  ....@@@@    XXXXXXoo  $$$$$$$$$$$$",
"$$$$$$$$$$$$  @@@@......      ......@@@@            $$$$$$$$$$$$",
"$$$$$$$$$$$$  @@@@......      ......@@@@            $$$$$$$$$$$$",
"$$$$$$$$$$$$  @@........  $$  ........@@  $$$$$$$$$$$$$$$$$$$$$$",
"$$$$$$$$$$$$  @@........  $$  ........@@  $$$$$$$$$$$$$$$$$$$$$$",
"$$$$$$$$$$$$              $$              $$$$$$$$$$$$$$$$$$$$$$",
"$$$$$$$$$$$$              $$              $$$$$$$$$$$$$$$$$$$$$$",
"$$$$$$$$$$$$$$$$$$$$$$$$$$$$$$$$$$$$$$$$$$$$$$$$$$$$$$$$$$$$$$$$",
"$$$$$$$$$$$$$$$$$$$$$$$$$$$$$$$$$$$$$$$$$$$$$$$$$$$$$$$$$$$$$$$$",
"$$$$$$$$$$$$$$$$$$$$$$$$$$$$$$$$$$$$$$$$$$$$$$$$$$$$$$$$$$$$$$$$",
"$$$$$$$$$$$$$$$$$$$$$$$$$$$$$$$$$$$$$$$$$$$$$$$$$$$$$$$$$$$$$$$$",
"$$$$$$$$$$$$$$$$$$$$$$$$$$$$$$$$$$$$$$$$$$$$$$$$$$$$$$$$$$$$$$$$",
"$$$$$$$$$$$$$$$$$$$$$$$$$$$$$$$$$$$$$$$$$$$$$$$$$$$$$$$$$$$$$$$$",
"$$$$$$$$$$$$$$$$$$$$$$$$$$$$$$$$$$$$$$$$$$$$$$$$$$$$$$$$$$$$$$$$",
"$$$$$$$$$$$$$$$$$$$$$$$$$$$$$$$$$$$$$$$$$$$$$$$$$$$$$$$$$$$$$$$$"
};
