/* XPM */
static char *result[] = {
/* columns rows colors chars-per-pixel */
"64 64 9 1 ",
"  c black",
". c #484343",
"X c #A00000",
"o c red",
"O c #B98F00",
"+ c #FFC80D",
"@ c #9B9998",
"# c #DEDAD8",
"$ c None",
/* pixels */
"$$$$$$$$$$$$$$$$$$$$$$$$$$$$$$$$$$$$$$$$$$$$$$$$$$$$$$$$$$$$$$$$",
"$$$$$$$$$$$$$$$$$$$$$$$$$$$$$$$$$$$$$$$$$$$$$$$$$$$$$$$$$$$$$$$$",
"$$$$$$$$$$$$$$$$$$$$$$$$$$$$$$$$$$$$$$$$$$$$$$$$$$$$$$$$$$$$$$$$",
"$$$$$$$$$$$$$$$$$$$$$$$$$$$$$$$$$$$$$$$$$$$$$$$$$$$$$$$$$$$$$$$$",
"$$$$$$$$$$$$$$$$$$$$$$$$$$$$$$$$$$$$$$$$$$$$$$$$$$$$$$$$$$$$$$$$",
"$$$$$$$$$$$$$$$$$$$$$$$$$$$$$$$$$$$$$$$$$$$$$$$$$$$$$$$$$$$$$$$$",
"$$$$$$$$$$$$$$$$$$$$$$$$$$$$$$$$$$$$$$$$$$$$$$$$$$$$$$$$$$$$$$$$",
"$$$$$$$$$$$$$$$$$$$$$$$$$$$$$$$$$$$$$$$$$$$$$$$$$$$$$$$$$$$$$$$$",
"$$$$$$$$$$$$$$$$$$$$      $$$$$$$$$$$$$$$$$$$$$$$$$$$$$$$$$$$$$$",
"$$$$$$$$$$$$$$$$$$$$      $$$$$$$$$$$$$$$$$$$$$$$$$$$$$$$$$$$$$$",
"$$$$$$$$$$$$$$$$$$    oooo  $$$$$$$$$$$$$$$$$$$$$$$$$$$$$$$$$$$$",
"$$$$$$$$$$$$$$$$$$    oooo  $$$$$$$$$$$$$$$$$$$$$$$$$$$$$$$$$$$$",
"$$$$$$$$$$$$$$$$$$  ooXX                  $$$$$$$$$$$$$$$$$$$$$$",
"$$$$$$$$$$$$$$$$$$  ooXX                  $$$$$$$$$$$$$$$$$$$$$$",
"$$$$$$$$$$$$$$$$  ooXX    ##  ####@@@@....  $$$$$$$$$$$$$$$$$$$$",
"$$$$$$$$$$$$$$$$  ooXX    ##  ####@@@@....  $$$$$$$$$$$$$$$$$$$$",
"$$$$$$$$$$$$$$$$  XX  $$    ##@@@@..........  $$$$$$$$$$$$$$$$$$",
"$$$$$$$$$$$$$$$$  XX  $$    ##@@@@..........  $$$$$$$$$$$$$$$$$$",
"$$$$$$$$$$$$$$$$    $$$$$$  @@@@............  $$$$$$$$$$$$$$$$$$",
"$$$$$$$$$$$$$$$$    $$$$$$  @@@@............  $$$$$$$$$$$$$$$$$$",
"$$$$$$$$$$$$$$$$$$$$$$$$$$  @@@@..            $$$$$$$$$$$$$$$$$$",
"$$$$$$$$$$$$$$$$$$$$$$$$$$  @@@@..            $$$$$$$$$$$$$$$$$$",
"$$$$$$$$$$$$$$$$$$$$$$$$$$  @@@@........  ..  $$$$$$$$$$$$$$$$$$",
"$$$$$$$$$$$$$$$$$$$$$$$$$$  @@@@........  ..  $$$$$$$$$$$$$$$$$$",
"$$$$$$$$$$$$$$$$$$$$$$$$$$  @@@@........  ..  $$$$$$$$$$$$$$$$$$",
"$$$$$$$$$$$$$$$$$$$$$$$$$$  @@@@........  ..  $$$$$$$$$$$$$$$$$$",
"$$$$$$$$$$$$$$$$$$$$$$$$      @@........  ..  $$$$$$$$$$$$$$$$$$",
"$$$$$$$$$$$$$$$$$$$$$$$$      @@........  ..  $$$$$$$$$$$$$$$$$$",
"$$$$$$$$$$$$$$$$$$$$$$  ####@@    ......  ..    $$$$$$$$$$$$$$$$",
"$$$$$$$$$$$$$$$$$$$$$$  ####@@    ......  ..    $$$$$$$$$$$$$$$$",
"$$$$$$$$$$$$$$$$$$$$    ##@@....            ##  $$$$$$$$$$$$$$$$",
"$$$$$$$$$$$$$$$$$$$$    ##@@....            ##  $$$$$$$$$$$$$$$$",
"$$$$$$$$$$$$$$$$$$  oooo    ....  ....++..      $$$$$$$$$$$$$$$$",
"$$$$$$$$$$$$$$$$$$  oooo    ....  ....++..      $$$$$$$$$$$$$$$$",
"$$$$$$$$$$$$$$$$$$  oo  @@..      OO++++++  @@@@  $$$$$$$$$$$$$$",
"$$$$$$$$$$$$$$$$$$  oo  @@..      OO++++++  @@@@  $$$$$$$$$$$$$$",
"$$$$$$$$$$$$$$$$  oo  @@@@....    ....++..  ..@@  $$$$$$$$$$$$$$",
"$$$$$$$$$$$$$$$$  oo  @@@@....    ....++..  ..@@  $$$$$$$$$$$$$$",
"$$$$$$$$$$$$$$$$  oo  @@....  ..  ....++..  ..@@  $$$$$$$$$$$$$$",
"$$$$$$$$$$$$$$$$  oo  @@....  ..  ....++..  ..@@  $$$$$$$$$$$$$$",
"$$$$$$$$$$$$$$$$  oo  @@....        ..++..    @@  $$$$$$$$$$$$$$",
"$$$$$$$$$$$$$$$$  oo  @@....        ..++..    @@  $$$$$$$$$$$$$$",
"$$$$$$$$$$$$$$    ooXX          ..    OO  ..    $$$$$$$$$$$$$$$$",
"$$$$$$$$$$$$$$    ooXX          ..    OO  ..    $$$$$$$$$$$$$$$$",
"$$$$$$$$$$$$$$  ooXXXXXXXX    ....        ....  $$$$$$$$$$$$$$$$",
"$$$$$$$$$$$$$$  ooXXXXXXXX    ....        ....  $$$$$$$$$$$$$$$$",
"$$$$$$$$$$$$  ooooXXXXXXXX          ..          $$$$$$$$$$$$$$$$",
"$$$$$$$$$$$$  ooooXXXXXXXX          ..          $$$$$$$$$$$$$$$$",
"$$$$$$$$$$$$  ooXXXXXX    @@@@....  ..  ....@@@@  $$$$$$$$$$$$$$",
"$$$$$$$$$$$$  ooXXXXXX    @@@@....  ..  ....@@@@  $$$$$$$$$$$$$$",
"$$$$$$$$$$$$            @@@@......      ......@@@@  $$$$$$$$$$$$",
"$$$$$$$$$$$$            @@@@......      ......@@@@  $$$$$$$$$$$$",
"$$$$$$$$$$$$$$$$$$$$$$  @@........  $$  ........@@  $$$$$$$$$$$$",
"$$$$$$$$$$$$$$$$$$$$$$  @@........  $$  ........@@  $$$$$$$$$$$$",
"$$$$$$$$$$$$$$$$$$$$$$              $$              $$$$$$$$$$$$",
"$$$$$$$$$$$$$$$$$$$$$$              $$              $$$$$$$$$$$$",
"$$$$$$$$$$$$$$$$$$$$$$$$$$$$$$$$$$$$$$$$$$$$$$$$$$$$$$$$$$$$$$$$",
"$$$$$$$$$$$$$$$$$$$$$$$$$$$$$$$$$$$$$$$$$$$$$$$$$$$$$$$$$$$$$$$$",
"$$$$$$$$$$$$$$$$$$$$$$$$$$$$$$$$$$$$$$$$$$$$$$$$$$$$$$$$$$$$$$$$",
"$$$$$$$$$$$$$$$$$$$$$$$$$$$$$$$$$$$$$$$$$$$$$$$$$$$$$$$$$$$$$$$$",
"$$$$$$$$$$$$$$$$$$$$$$$$$$$$$$$$$$$$$$$$$$$$$$$$$$$$$$$$$$$$$$$$",
"$$$$$$$$$$$$$$$$$$$$$$$$$$$$$$$$$$$$$$$$$$$$$$$$$$$$$$$$$$$$$$$$",
"$$$$$$$$$$$$$$$$$$$$$$$$$$$$$$$$$$$$$$$$$$$$$$$$$$$$$$$$$$$$$$$$",
"$$$$$$$$$$$$$$$$$$$$$$$$$$$$$$$$$$$$$$$$$$$$$$$$$$$$$$$$$$$$$$$$"
};
