/* XPM */
static char *result[] = {
/* columns rows colors chars-per-pixel */
"64 64 10 1 ",
"  c black",
". c #393737",
"X c #484343",
"o c #A00000",
"O c red",
"+ c #B98F00",
"@ c #FFC80D",
"# c #9B9998",
"$ c #DEDAD8",
"% c None",
/* pixels */
"%%%%%%%%%%%%%%%%%%%%%%%%%%%%%%%%%%%%%%%%%%%%%%%%%%%%%%%%%%%%%%%%",
"%%%%%%%%%%%%%%%%%%%%%%%%%%%%%%%%%%%%%%%%%%%%%%%%%%%%%%%%%%%%%%%%",
"%%%%%%%%%%%%%%%%%%%%%%%%%%%%%%%%%%%%%%%%%%%%%%%%%%%%%%%%%%%%%%%%",
"%%%%%%%%%%%%%%%%%%%%%%%%%%%%%%%%%%%%%%%%%%%%%%%%%%%%%%%%%%%%%%%%",
"%%%%%%%%%%%%%%%%%%%%%%%%%%%%%%%%%%%%%%%%%%%%%%%%%%%%%%%%%%%%%%%%",
"%%%%%%%%%%%%%%%%%%%%%%%%%%%%%%%%%%%%%%%%%%%%%%%%%%%%%%%%%%%%%%%%",
"%%%%%%%%%%%%%%%%%%%%%%%%%%%%%%%  %%%%%%%%%%%%%%%%%%%%%%%%%%%%%%%",
"%%%%%%%%%%%%%%%%%%%%%%%%%%%%%%%  %%%%%%%%%%%%%%%%%%%%%%%%%%%%%%%",
"%%%%%%%%%%%%%%%%%%%%%%%%%%%%%  OO  %%%%%%%%%%%%%%%%%%%%%%%%%%%%%",
"%%%%%%%%%%%%%%%%%%%%%%%%%%%%%  OO  %%%%%%%%%%%%%%%%%%%%%%%%%%%%%",
"%%%%%%%%%%%%%%%%%%%%%%%%%%%  OOOOOO  %%%%%%%%%%%%%%%%%%%%%%%%%%%",
"%%%%%%%%%%%%%%%%%%%%%%%%%%%  OOOOOO  %%%%%%%%%%%%%%%%%%%%%%%%%%%",
"%%%%%%%%%%%%%%%%%%%%%%%%%%%  OOOOOO  %%%%%%%%%%%%%%%%%%%%%%%%%%%",
"%%%%%%%%%%%%%%%%%%%%%%%%%%%  OOOOOO  %%%%%%%%%%%%%%%%%%%%%%%%%%%",
"%%%%%%%%%%%%%%%%%%%%%%%%%    OOOOOO    %%%%%%%%%%%%%%%%%%%%%%%%%",
"%%%%%%%%%%%%%%%%%%%%%%%%%    OOOOOO    %%%%%%%%%%%%%%%%%%%%%%%%%",
"%%%%%%%%%%%%%%%%%%%%%%%  ##  OOOOOO  ##  %%%%%%%%%%%%%%%%%%%%%%%",
"%%%%%%%%%%%%%%%%%%%%%%%  ##  OOOOOO  ##  %%%%%%%%%%%%%%%%%%%%%%%",
"%%%%%%%%%%%%%%%%%%%%%  ##XX..  OO  ..XX##  %%%%%%%%%%%%%%%%%%%%%",
"%%%%%%%%%%%%%%%%%%%%%  ##XX..  OO  ..XX##  %%%%%%%%%%%%%%%%%%%%%",
"%%%%%%%%%%%%%%%%%%%%%  ##XX..  OO  ..XX##  %%%%%%%%%%%%%%%%%%%%%",
"%%%%%%%%%%%%%%%%%%%%%  ##XX..  OO  ..XX##  %%%%%%%%%%%%%%%%%%%%%",
"%%%%%%%%%%%%%%%%%%%%%  ##XX....  ....XX##  %%%%%%%%%%%%%%%%%%%%%",
"%%%%%%%%%%%%%%%%%%%%%  ##XX....  ....XX##  %%%%%%%%%%%%%%%%%%%%%",
"%%%%%%%%%%%%%%%%%%%%%  ##XXXX......XXXX##  %%%%%%%%%%%%%%%%%%%%%",
"%%%%%%%%%%%%%%%%%%%%%  ##XXXX......XXXX##  %%%%%%%%%%%%%%%%%%%%%",
"%%%%%%%%%%%%%%%%%%%%%  ##XXXX......XXXX##  %%%%%%%%%%%%%%%%%%%%%",
"%%%%%%%%%%%%%%%%%%%%%  ##XXXX......XXXX##  %%%%%%%%%%%%%%%%%%%%%",
"%%%%%%%%%%%%%%%%%%%      XXXXXX..XXXXXX      %%%%%%%%%%%%%%%%%%%",
"%%%%%%%%%%%%%%%%%%%      XXXXXX..XXXXXX      %%%%%%%%%%%%%%%%%%%",
"%%%%%%%%%%%%%%%%%  $$$$##              ##$$$$  %%%%%%%%%%%%%%%%%",
"%%%%%%%%%%%%%%%%%  $$$$##              ##$$$$  %%%%%%%%%%%%%%%%%",
"%%%%%%%%%%%%%%%%%  $$##XX    oo++oo    XX##$$  %%%%%%%%%%%%%%%%%",
"%%%%%%%%%%%%%%%%%  $$##XX    oo++oo    XX##$$  %%%%%%%%%%%%%%%%%",
"%%%%%%%%%%%%%%%%%%%      OO    ++    OO      %%%%%%%%%%%%%%%%%%%",
"%%%%%%%%%%%%%%%%%%%      OO    ++    OO      %%%%%%%%%%%%%%%%%%%",
"%%%%%%%%%%%%%%%%%  ##  ooooOOoo@@ooOOoooo  ##  %%%%%%%%%%%%%%%%%",
"%%%%%%%%%%%%%%%%%  ##  ooooOOoo@@ooOOoooo  ##  %%%%%%%%%%%%%%%%%",
"%%%%%%%%%%%%%%%  ####  ++++oooo@@oooo++++  ####  %%%%%%%%%%%%%%%",
"%%%%%%%%%%%%%%%  ####  ++++oooo@@oooo++++  ####  %%%%%%%%%%%%%%%",
"%%%%%%%%%%%%%%%  ##  oooooo@@@@@@@@@@oooooo  ##  %%%%%%%%%%%%%%%",
"%%%%%%%%%%%%%%%  ##  oooooo@@@@@@@@@@oooooo  ##  %%%%%%%%%%%%%%%",
"%%%%%%%%%%%%%%%    ooOOOOOOoooo@@ooooOOOOOOoo    %%%%%%%%%%%%%%%",
"%%%%%%%%%%%%%%%    ooOOOOOOoooo@@ooooOOOOOOoo    %%%%%%%%%%%%%%%",
"%%%%%%%%%%%%%%%  ooOOOOOOOOOOoo@@ooOOOOOOOOOOoo  %%%%%%%%%%%%%%%",
"%%%%%%%%%%%%%%%  ooOOOOOOOOOOoo@@ooOOOOOOOOOOoo  %%%%%%%%%%%%%%%",
"%%%%%%%%%%%%%  ooOOOOOOOOOOOOoo@@ooOOOOOOOOOOOOoo  %%%%%%%%%%%%%",
"%%%%%%%%%%%%%  ooOOOOOOOOOOOOoo@@ooOOOOOOOOOOOOoo  %%%%%%%%%%%%%",
"%%%%%%%%%%%  ooOOOOOOOOOOOOOOoo++ooOOOOOOOOOOOOOOoo  %%%%%%%%%%%",
"%%%%%%%%%%%  ooOOOOOOOOOOOOOOoo++ooOOOOOOOOOOOOOOoo  %%%%%%%%%%%",
"%%%%%%%%%%%  oooooooooooooooooo++oooooooooooooooooo  %%%%%%%%%%%",
"%%%%%%%%%%%  oooooooooooooooooo++oooooooooooooooooo  %%%%%%%%%%%",
"%%%%%%%%%%%%%                                      %%%%%%%%%%%%%",
"%%%%%%%%%%%%%                                      %%%%%%%%%%%%%",
"%%%%%%%%%%%%%%%%%  ##XXXXXXXX  %%  XXXXXXXX##  %%%%%%%%%%%%%%%%%",
"%%%%%%%%%%%%%%%%%  ##XXXXXXXX  %%  XXXXXXXX##  %%%%%%%%%%%%%%%%%",
"%%%%%%%%%%%%%%%%%              %%              %%%%%%%%%%%%%%%%%",
"%%%%%%%%%%%%%%%%%              %%              %%%%%%%%%%%%%%%%%",
"%%%%%%%%%%%%%%%%%%%%%%%%%%%%%%%%%%%%%%%%%%%%%%%%%%%%%%%%%%%%%%%%",
"%%%%%%%%%%%%%%%%%%%%%%%%%%%%%%%%%%%%%%%%%%%%%%%%%%%%%%%%%%%%%%%%",
"%%%%%%%%%%%%%%%%%%%%%%%%%%%%%%%%%%%%%%%%%%%%%%%%%%%%%%%%%%%%%%%%",
"%%%%%%%%%%%%%%%%%%%%%%%%%%%%%%%%%%%%%%%%%%%%%%%%%%%%%%%%%%%%%%%%",
"%%%%%%%%%%%%%%%%%%%%%%%%%%%%%%%%%%%%%%%%%%%%%%%%%%%%%%%%%%%%%%%%",
"%%%%%%%%%%%%%%%%%%%%%%%%%%%%%%%%%%%%%%%%%%%%%%%%%%%%%%%%%%%%%%%%"
};
