/* XPM */
static char *result[] = {
/* columns rows colors chars-per-pixel */
"64 64 6 1 ",
"  c #252525",
". c #393737",
"X c #484343",
"o c #777474",
"O c #9B9998",
"+ c None",
/* pixels */
"OOOOOOXX........OOooooooXX............XXooooooOO........XXOOOOOO",
"OOOOOOXX........OOooooooXX............XXooooooOO........XXOOOOOO",
"OOOOXX  ..OO....  XXXXXX  ..OOOOOOOO..  XXXXXX  ....OO..  XXOOOO",
"OOOOXX  ..OO....  XXXXXX  ..OOOOOOOO..  XXXXXX  ....OO..  XXOOOO",
"OOXX  ..OOooOOoo....    ..OOXXXXooXXOO..    ....ooOOooOO..  XXOO",
"OOXX  ..OOooOOoo....    ..OOXXXXooXXOO..    ....ooOOooOO..  XXOO",
"XX  ..OOoooooooooo......OOXXooooooooXXOO......ooooooooooOO..  XX",
"XX  ..OOoooooooooo......OOXXooooooooXXOO......ooooooooooOO..  XX",
"  ..OOooooooooooXX....OOXXooooooooooooXXOO....XXooooooooooOO..  ",
"  ..OOooooooooooXX....OOXXooooooooooooXXOO....XXooooooooooOO..  ",
"....XXoooooooooooo..OOXXooooooooooooooooXXOO..ooooooooooooXX....",
"....XXoooooooooooo..OOXXooooooooooooooooXXOO..ooooooooooooXX....",
"....  XXooooooooXX..oooooooooooooooooooooooo..XXooooooooXX  ....",
"....  XXooooooooXX..oooooooooooooooooooooooo..XXooooooooXX  ....",
"OO....  XXXXXXXX  ..  XXXXooooooooooooXXXX  ..  XXXXXXXX  ....OO",
"OO....  XXXXXXXX  ..  XXXXooooooooooooXXXX  ..  XXXXXXXX  ....OO",
"oooo........    ......    XXXXXXXX        ......    ........oooo",
"oooo........    ......    XXXXXXXX        ......    ........oooo",
"oooo......................        ..........................oooo",
"oooo......................        ..........................oooo",
"ooXX....OOOOXXOOoo..................OOOO......ooOOXXOOOO....XXoo",
"ooXX....OOOOXXOOoo..................OOOO......ooOOXXOOOO....XXoo",
"XX....OOXXooooooooooXX......OOOO....ooXX..XXooooooooooXXOO....XX",
"XX....OOXXooooooooooXX......OOOO....ooXX..XXooooooooooXXOO....XX",
"....OOXXooooooooooooXX....OOXXXXOO........XXooooooooooooXXOO....",
"....OOXXooooooooooooXX....OOXXXXOO........XXooooooooooooXXOO....",
"....ooooooooooooooXX....OOooooooooooOOOO....XXoooooooooooooo....",
"....ooooooooooooooXX....OOooooooooooOOOO....XXoooooooooooooo....",
"....  ooooooooXX    ..OOXXooooooooooooXXOO...   XXoooooooo  ....",
"....  ooooooooXX    ..OOXXooooooooooooXXOO...   XXoooooooo  ....",
"......XX  XX    ......OOXXooooooooooooXXOO......    XX  XX......",
"......XX  XX    ......OOXXooooooooooooXXOO......    XX  XX......",
"....................OOXXooooooooooooooooXXOO....................",
"....................OOXXooooooooooooooooXXOO....................",
"....OOOOOOOOOO......oooooooooooooooooooooooo....OOooooXXOOOO....",
"....OOOOOOOOOO......oooooooooooooooooooooooo....OOooooXXOOOO....",
"..OOXXooooooXXOOOO..  XXXXooooooooooooXXXX  ..OOooooooooooXXOO..",
"..OOXXooooooXXOOOO..  XXXXooooooooooooXXXX  ..OOooooooooooXXOO..",
"..oooooooooooooooo....    XXXXXXXX        ....oooooooooooooooo..",
"..oooooooooooooooo....    XXXXXXXX        ....oooooooooooooooo..",
"..XXXXoooooooooooo........        ............ooooooooooooooXX..",
"..XXXXoooooooooooo........        ............ooooooooooooooXX..",
"..    XXoooooooo  ..................ooOOOO....  ooooooooXX    ..",
"..    XXoooooooo  ..................ooOOOO....  ooooooooXX    ..",
"......    XX  XX......OOOOooOO....ooooooXXOO....XX  XX    ......",
"......    XX  XX......OOOOooOO....ooooooXXOO....XX  XX    ......",
"....................OOXXoooooo....ooooooooXXOO..................",
"....................OOXXoooooo....ooooooooXXOO..................",
"....OOXXOOXX......OOXXoooooooooo..XXoooooooooo....OOXXOO........",
"....OOXXOOXX......OOXXoooooooooo..XXoooooooooo....OOXXOO........",
"..OOooooooooXX....oooooooooooooo..XXoooooooo  ..OOooooXXOO......",
"..OOooooooooXX....oooooooooooooo..XXoooooooo  ..OOooooXXOO......",
"....    oooooooo..  ooooooooXX  ..    XX  XX..OOXXoooooooo......",
"....    oooooooo..  ooooooooXX  ..    XX  XX..OOXXoooooooo......",
"OO......    oo  ....XX  XX    ................  oooooo  ....OOXX",
"OO......    oo  ....XX  XX    ................  oooooo  ....OOXX",
"XXOOOO......  ..................................      ....OOXXoo",
"XXOOOO......  ..................................      ....OOXXoo",
"ooooXXOO............ooOOOO............OOooXXOO..........OOXXoooo",
"ooooXXOO............ooOOOO............OOooXXOO..........OOXXoooo",
"ooooooXXOO......OOOOXXooooOO......OOOOXXooooXXOO......OOXXoooooo",
"ooooooXXOO......OOOOXXooooOO......OOOOXXooooXXOO......OOXXoooooo",
"ooooooooXXoo....ooXXoooooooo......oooooooooooooo......XXoooooooo",
"++++++++++++++++++++++++++++++++++++++++++++++++++++++++++++++++"
};
