/* XPM */
static char *result[] = {
/* columns rows colors chars-per-pixel */
"64 64 10 1 ",
"  c #252525",
". c #393737",
"X c #622900",
"o c #713002",
"O c #266200",
"+ c #484343",
"@ c #777474",
"# c #933E00",
"$ c #9B9998",
"% c None",
/* pixels */
"$$$$$$++........$$@@@@@@++............++@@@@@@$$........++$$$$$$",
"$$$$$$++........$$@@@@@@++............++@@@@@@$$........++$$$$$$",
"$$$$++  ..$$....  ++++++  ..$$$$$$$$..  ++++++  ....$$..  ++$$$$",
"$$$$++  ..$$....  ++++++  ..$$$$$$$$..  ++++++  ....$$..  ++$$$$",
"$$++  ..$$@@$$@@....    ..$$++++@@++$$..    ....@@$$@@$$..  ++$$",
"$$++  ..$$@@$$@@....    ..$$++++@@++$$..    ....@@$$@@$$..  ++$$",
"++  ..$$@@@@@@@@@@......$$++@@@@@@@@++$$......@@@@@@@@@@$$..  ++",
"++  ..$$@@@@@@@@@@......$$++@@@@@@@@++$$......@@@@@@@@@@$$..  ++",
"  ..$$@@@@@@@@@@++....$$++@@@@@@@@@@@@++$$....++@@@@@@@@@@$$..  ",
"  ..$$@@@@@@@@@@++....$$++@@@@@@@@@@@@++$$....++@@@@@@@@@@$$..  ",
"....++@@@@@@@@@@@@..$$++@@@@@@@@@@@@@@@@++$$..@@@@@@@@@@@@++....",
"....++@@@@@@@@@@@@..$$++@@@@@@@@@@@@@@@@++$$..@@@@@@@@@@@@++....",
"....  ++@@@@@@@@++..@@@@@@@@@@@@@@@@@@@@@@@@..++@@@@@@@@++  ....",
"....  ++@@@@@@@@++..@@@@@@@@@@@@@@@@@@@@@@@@..++@@@@@@@@++  ....",
"$$....  ++++++++  ..  XXXXXXXXXXXXXXXXXX++  ..  ++++++++  ....$$",
"$$....  ++++++++  ..  XXXXXXXXXXXXXXXXXX++  ..  ++++++++  ....$$",
"@@@@........    ..XXXX####oooooooooooo##XXXX....    ........@@@@",
"@@@@........    ..XXXX####oooooooooooo##XXXX....    ........@@@@",
"@@@@..........XXXX####oooo############oo####XXXX............@@@@",
"@@@@..........XXXX####oooo############oo####XXXX............@@@@",
"@@++....$$$$XX####oooo####oooooooooooo##oooo####XXXX$$$$....++@@",
"@@++....$$$$XX####oooo####oooooooooooo##oooo####XXXX$$$$....++@@",
"++....$$++XX##oooo####oooo############oo####oo####XX@@++$$....++",
"++....$$++XX##oooo####oooo############oo####oo####XX@@++$$....++",
"....$$++XX##oo####oooo####oooooooooooo##oooo##oo####XX@@++$$....",
"....$$++XX##oo####oooo####oooooooooooo##oooo##oo####XX@@++$$....",
"....@@@@XX##oo##oo####oooo############oo####oo##oo####XX@@@@....",
"....@@@@XX##oo##oo####oooo############oo####oo##oo####XX@@@@....",
"....  @@XX##oo##oo##oooo####oooooooo##oooooo##oo##oo##XX@@  ....",
"....  @@XX##oo##oo##oooo####oooooooo##oooooo##oo##oo##XX@@  ....",
"......++XX##oooo##oo####oo##########oo######oo####oo##XX++......",
"......++XX##oooo##oo####oo##########oo######oo####oo##XX++......",
"......XXXXoo####oo##oooo##oooooooooo####oooo##oooo####XX........",
"......OOXXoo####oo##oooo##oooooooooo####oooo##oooo####XX........",
"....$$OOXXooXXXX##oo####oooooooooooooooo####oo######XXXXOO$$....",
"....$$ooOOooXXXX##oo####oooooooooooooooo####oo######XXXXOO$$....",
"..$$++ooOOooXXOOoo##oooo##############oooooo##XXXXooXXOOXX++$$..",
"..$$++XXOOooXXOOoo##oooo##############oooooo##XXXXooXXOOXX++$$..",
"..@@@@XXOOooXXOOooXX####oooooooooooooo######XXOOXXooXXOOXX@@@@..",
"..@@@@XXXXooXXOOooXX####oooooooooooooo######XXOOXXooXXOOXX@@@@..",
"..++++@@XXooXXooXXXXooXX############XXooXXXXooXXOOooXXXX@@@@++..",
"..++++@@XXooXXooXXOOooXX############XXooXXXXooXXOOooXXXX@@@@++..",
"..    ++XXooXXooXXOOooXXooXXooXXXXooOOooXXOOooXXOOooXXXX++    ..",
"..    ++XXooXXooXXXXooXXooXXooXXXXooOOooXXOOooXXOOooXXXX++    ..",
"......XXooXXOOooXXXXooOOooXXooOOOOooXXooOOXXooXXXXXXooXXXX......",
"......XXooXXOOooXXXXooOOooXXooOOOOooXXooOOXXooXXXXXXooXXXX......",
"....XXXXXXXXooOOXXooXXOOooXXooOOXXooXXXXooXXXXooXXXXooXXXX......",
"....XXXXXXXXooOOXXooXXOOooXXooOOXXooXXXXooXXXXooXXXXooXXXX......",
"....$$XXXXXXooOOXXooOOooXXXXooXXXXooOOXXooXXOOXXooXXXXooXX......",
"....$$XXXXXXooOOXXooOOooXXXXooXXXXooOOXXooXXOOXXooXXXXooXX......",
"..$$@@@@XXXXXXXXXXooXXooXXXXooXXXXOOOOXXooXXXXOOooXXOOooXXXX....",
"..$$@@@@XXXXXXXXooXXXXooXXooXXXXXXOOOOXXooXXXXOOooXXOOooXXXX....",
"....    @@XXXXXXooXXXXooXXooOOXXooXXooXXooXXXXOOooXXXXXX@@......",
"....    @@XXXXXXXXXXooXXXXooOOXXooXXooXXooXXXXOOooXXXXXX@@......",
"$$......    XXXXXXXXooXXXXooXXooXXXXooXXXXooXXXXXXXXXX  ....$$++",
"$$......    XXXXXXXXXXXXXXooXXooXXXXooXXXXooXXXXXXXXXX  ....$$++",
"++$$$$......  ....XXXXXXXXooXXooXXXXooXXXXooXXXX      ....$$++@@",
"++$$$$......  ....XXXXXXXXooXXooXXXXooXXXXooXXXX      ....$$++@@",
"@@@@++$$............@@XXXXXXXX..XXXXXXXXXXXXXX..........$$++@@@@",
"@@@@++$$............@@XXXXXXXX..XXXXXXXXXXXXXX..........$$++@@@@",
"@@@@@@++$$......$$$$++@@@@$$......$$$$++@@@@++$$......$$++@@@@@@",
"@@@@@@++$$......$$$$++@@@@$$......$$$$++@@@@++$$......$$++@@@@@@",
"@@@@@@@@++@@....@@++@@@@@@@@......@@@@@@@@@@@@@@......++@@@@@@@@",
"%%%%%%%%%%%%%%%%%%%%%%%%%%%%%%%%%%%%%%%%%%%%%%%%%%%%%%%%%%%%%%%%"
};
